<mxfile host="app.diagrams.net" modified="2024-07-15T00:46:23.253Z" agent="Mozilla/5.0 (Windows NT 10.0; Win64; x64) AppleWebKit/537.36 (KHTML, like Gecko) Chrome/125.0.0.0 Safari/537.36" etag="TPSGNTKysApB2V4OjB-0" version="24.6.5" type="device">
  <diagram id="ipJZQCIevjTgReVxWzWd" name="Trang-1">
    <mxGraphModel dx="1007" dy="516" grid="1" gridSize="10" guides="1" tooltips="1" connect="1" arrows="1" fold="1" page="1" pageScale="1" pageWidth="827" pageHeight="1169" math="0" shadow="0">
      <root>
        <mxCell id="0" />
        <mxCell id="1" parent="0" />
        <mxCell id="mExYl_rD0EayUsfX2sbQ-23" value="USER" style="shape=table;startSize=75;container=1;collapsible=0;childLayout=tableLayout;fixedRows=1;rowLines=1;fontStyle=1;align=center;resizeLast=1;" parent="1" vertex="1">
          <mxGeometry x="240" y="340" width="100" height="75" as="geometry" />
        </mxCell>
        <mxCell id="mExYl_rD0EayUsfX2sbQ-24" value="BORROWRECORD" style="shape=table;startSize=75;container=1;collapsible=0;childLayout=tableLayout;fixedRows=1;rowLines=1;fontStyle=1;align=center;resizeLast=1;" parent="1" vertex="1">
          <mxGeometry x="360" y="700" width="150" height="75" as="geometry" />
        </mxCell>
        <mxCell id="mExYl_rD0EayUsfX2sbQ-25" value="BOOK" style="shape=table;startSize=75;container=1;collapsible=0;childLayout=tableLayout;fixedRows=1;rowLines=1;fontStyle=1;align=center;resizeLast=1;" parent="1" vertex="1">
          <mxGeometry x="455" y="450" width="100" height="75" as="geometry" />
        </mxCell>
        <mxCell id="mExYl_rD0EayUsfX2sbQ-26" value="CATEGORY" style="shape=table;startSize=75;container=1;collapsible=0;childLayout=tableLayout;fixedRows=1;rowLines=1;fontStyle=1;align=center;resizeLast=1;" parent="1" vertex="1">
          <mxGeometry x="455" y="180" width="100" height="75" as="geometry" />
        </mxCell>
        <mxCell id="mExYl_rD0EayUsfX2sbQ-41" value="Fullname" style="ellipse;whiteSpace=wrap;html=1;" parent="1" vertex="1">
          <mxGeometry x="150" y="250" width="80" height="50" as="geometry" />
        </mxCell>
        <mxCell id="mExYl_rD0EayUsfX2sbQ-42" value="Password" style="ellipse;whiteSpace=wrap;html=1;" parent="1" vertex="1">
          <mxGeometry x="110" y="315" width="80" height="50" as="geometry" />
        </mxCell>
        <mxCell id="mExYl_rD0EayUsfX2sbQ-43" value="Address" style="ellipse;whiteSpace=wrap;html=1;" parent="1" vertex="1">
          <mxGeometry x="120" y="390" width="80" height="50" as="geometry" />
        </mxCell>
        <mxCell id="mExYl_rD0EayUsfX2sbQ-44" value="&lt;u&gt;ID&lt;/u&gt;" style="ellipse;whiteSpace=wrap;html=1;" parent="1" vertex="1">
          <mxGeometry x="250" y="230" width="80" height="50" as="geometry" />
        </mxCell>
        <mxCell id="mExYl_rD0EayUsfX2sbQ-45" value="Role" style="ellipse;whiteSpace=wrap;html=1;" parent="1" vertex="1">
          <mxGeometry x="340" y="280" width="80" height="50" as="geometry" />
        </mxCell>
        <mxCell id="mExYl_rD0EayUsfX2sbQ-46" value="" style="endArrow=none;html=1;rounded=0;exitX=0.5;exitY=0;exitDx=0;exitDy=0;entryX=0;entryY=0.5;entryDx=0;entryDy=0;" parent="1" source="mExYl_rD0EayUsfX2sbQ-23" target="mExYl_rD0EayUsfX2sbQ-45" edge="1">
          <mxGeometry width="50" height="50" relative="1" as="geometry">
            <mxPoint x="230" y="350" as="sourcePoint" />
            <mxPoint x="280" y="300" as="targetPoint" />
          </mxGeometry>
        </mxCell>
        <mxCell id="mExYl_rD0EayUsfX2sbQ-47" value="" style="endArrow=none;html=1;rounded=0;entryX=0;entryY=0.5;entryDx=0;entryDy=0;exitX=1.013;exitY=0.33;exitDx=0;exitDy=0;exitPerimeter=0;" parent="1" source="mExYl_rD0EayUsfX2sbQ-43" target="mExYl_rD0EayUsfX2sbQ-23" edge="1">
          <mxGeometry width="50" height="50" relative="1" as="geometry">
            <mxPoint x="230" y="350" as="sourcePoint" />
            <mxPoint x="280" y="300" as="targetPoint" />
          </mxGeometry>
        </mxCell>
        <mxCell id="mExYl_rD0EayUsfX2sbQ-48" value="" style="endArrow=none;html=1;rounded=0;exitX=1;exitY=0.5;exitDx=0;exitDy=0;entryX=0;entryY=0.5;entryDx=0;entryDy=0;" parent="1" source="mExYl_rD0EayUsfX2sbQ-42" target="mExYl_rD0EayUsfX2sbQ-23" edge="1">
          <mxGeometry width="50" height="50" relative="1" as="geometry">
            <mxPoint x="230" y="350" as="sourcePoint" />
            <mxPoint x="280" y="300" as="targetPoint" />
          </mxGeometry>
        </mxCell>
        <mxCell id="mExYl_rD0EayUsfX2sbQ-49" value="" style="endArrow=none;html=1;rounded=0;entryX=0.5;entryY=0;entryDx=0;entryDy=0;exitX=1;exitY=1;exitDx=0;exitDy=0;" parent="1" source="mExYl_rD0EayUsfX2sbQ-41" target="mExYl_rD0EayUsfX2sbQ-23" edge="1">
          <mxGeometry width="50" height="50" relative="1" as="geometry">
            <mxPoint x="230" y="350" as="sourcePoint" />
            <mxPoint x="280" y="300" as="targetPoint" />
          </mxGeometry>
        </mxCell>
        <mxCell id="mExYl_rD0EayUsfX2sbQ-50" value="" style="endArrow=none;html=1;rounded=0;exitX=0.5;exitY=0;exitDx=0;exitDy=0;entryX=0.5;entryY=1;entryDx=0;entryDy=0;" parent="1" source="mExYl_rD0EayUsfX2sbQ-23" target="mExYl_rD0EayUsfX2sbQ-44" edge="1">
          <mxGeometry width="50" height="50" relative="1" as="geometry">
            <mxPoint x="230" y="350" as="sourcePoint" />
            <mxPoint x="280" y="300" as="targetPoint" />
          </mxGeometry>
        </mxCell>
        <mxCell id="mExYl_rD0EayUsfX2sbQ-51" value="EndDate" style="ellipse;whiteSpace=wrap;html=1;" parent="1" vertex="1">
          <mxGeometry x="440" y="910" width="80" height="50" as="geometry" />
        </mxCell>
        <mxCell id="mExYl_rD0EayUsfX2sbQ-54" value="StartDate" style="ellipse;whiteSpace=wrap;html=1;" parent="1" vertex="1">
          <mxGeometry x="310" y="900" width="80" height="50" as="geometry" />
        </mxCell>
        <mxCell id="mExYl_rD0EayUsfX2sbQ-57" value="&lt;u&gt;ID&lt;/u&gt;" style="ellipse;whiteSpace=wrap;html=1;" parent="1" vertex="1">
          <mxGeometry x="210" y="830" width="80" height="50" as="geometry" />
        </mxCell>
        <mxCell id="mExYl_rD0EayUsfX2sbQ-58" value="ReturnDate" style="ellipse;whiteSpace=wrap;html=1;" parent="1" vertex="1">
          <mxGeometry x="540" y="900" width="80" height="50" as="geometry" />
        </mxCell>
        <mxCell id="mExYl_rD0EayUsfX2sbQ-59" value="Quantoty" style="ellipse;whiteSpace=wrap;html=1;" parent="1" vertex="1">
          <mxGeometry x="600" y="830" width="80" height="50" as="geometry" />
        </mxCell>
        <mxCell id="mExYl_rD0EayUsfX2sbQ-62" value="Status" style="ellipse;whiteSpace=wrap;html=1;" parent="1" vertex="1">
          <mxGeometry x="580" y="760" width="80" height="50" as="geometry" />
        </mxCell>
        <mxCell id="mExYl_rD0EayUsfX2sbQ-64" value="" style="endArrow=none;html=1;rounded=0;entryX=0.5;entryY=0;entryDx=0;entryDy=0;exitX=0.5;exitY=1;exitDx=0;exitDy=0;" parent="1" source="mExYl_rD0EayUsfX2sbQ-24" target="mExYl_rD0EayUsfX2sbQ-54" edge="1">
          <mxGeometry width="50" height="50" relative="1" as="geometry">
            <mxPoint x="490" y="800" as="sourcePoint" />
            <mxPoint x="540" y="750" as="targetPoint" />
          </mxGeometry>
        </mxCell>
        <mxCell id="mExYl_rD0EayUsfX2sbQ-65" value="" style="endArrow=none;html=1;rounded=0;entryX=0.5;entryY=0;entryDx=0;entryDy=0;exitX=0.5;exitY=1;exitDx=0;exitDy=0;" parent="1" source="mExYl_rD0EayUsfX2sbQ-24" target="mExYl_rD0EayUsfX2sbQ-51" edge="1">
          <mxGeometry width="50" height="50" relative="1" as="geometry">
            <mxPoint x="490" y="800" as="sourcePoint" />
            <mxPoint x="540" y="750" as="targetPoint" />
          </mxGeometry>
        </mxCell>
        <mxCell id="mExYl_rD0EayUsfX2sbQ-66" value="" style="endArrow=none;html=1;rounded=0;entryX=0;entryY=0;entryDx=0;entryDy=0;exitX=0.5;exitY=1;exitDx=0;exitDy=0;" parent="1" source="mExYl_rD0EayUsfX2sbQ-24" target="mExYl_rD0EayUsfX2sbQ-58" edge="1">
          <mxGeometry width="50" height="50" relative="1" as="geometry">
            <mxPoint x="490" y="800" as="sourcePoint" />
            <mxPoint x="540" y="750" as="targetPoint" />
          </mxGeometry>
        </mxCell>
        <mxCell id="mExYl_rD0EayUsfX2sbQ-68" value="" style="endArrow=none;html=1;rounded=0;exitX=0.5;exitY=1;exitDx=0;exitDy=0;entryX=0;entryY=0.5;entryDx=0;entryDy=0;" parent="1" source="mExYl_rD0EayUsfX2sbQ-24" target="mExYl_rD0EayUsfX2sbQ-59" edge="1">
          <mxGeometry width="50" height="50" relative="1" as="geometry">
            <mxPoint x="490" y="800" as="sourcePoint" />
            <mxPoint x="540" y="750" as="targetPoint" />
          </mxGeometry>
        </mxCell>
        <mxCell id="mExYl_rD0EayUsfX2sbQ-69" value="" style="endArrow=none;html=1;rounded=0;exitX=0.5;exitY=1;exitDx=0;exitDy=0;entryX=0;entryY=0.5;entryDx=0;entryDy=0;" parent="1" source="mExYl_rD0EayUsfX2sbQ-24" target="mExYl_rD0EayUsfX2sbQ-62" edge="1">
          <mxGeometry width="50" height="50" relative="1" as="geometry">
            <mxPoint x="490" y="800" as="sourcePoint" />
            <mxPoint x="540" y="750" as="targetPoint" />
          </mxGeometry>
        </mxCell>
        <mxCell id="mExYl_rD0EayUsfX2sbQ-72" value="" style="endArrow=none;html=1;rounded=0;entryX=0.5;entryY=1;entryDx=0;entryDy=0;exitX=1;exitY=0.5;exitDx=0;exitDy=0;" parent="1" source="mExYl_rD0EayUsfX2sbQ-57" target="mExYl_rD0EayUsfX2sbQ-24" edge="1">
          <mxGeometry width="50" height="50" relative="1" as="geometry">
            <mxPoint x="290" y="860" as="sourcePoint" />
            <mxPoint x="340" y="810" as="targetPoint" />
          </mxGeometry>
        </mxCell>
        <mxCell id="mExYl_rD0EayUsfX2sbQ-75" value="&lt;u&gt;ID&lt;/u&gt;" style="ellipse;whiteSpace=wrap;html=1;" parent="1" vertex="1">
          <mxGeometry x="380" y="120" width="80" height="50" as="geometry" />
        </mxCell>
        <mxCell id="mExYl_rD0EayUsfX2sbQ-76" value="Name" style="ellipse;whiteSpace=wrap;html=1;" parent="1" vertex="1">
          <mxGeometry x="510" y="100" width="80" height="50" as="geometry" />
        </mxCell>
        <mxCell id="mExYl_rD0EayUsfX2sbQ-77" value="" style="endArrow=none;html=1;rounded=0;entryX=0.5;entryY=1;entryDx=0;entryDy=0;exitX=0.5;exitY=0;exitDx=0;exitDy=0;" parent="1" source="mExYl_rD0EayUsfX2sbQ-26" target="mExYl_rD0EayUsfX2sbQ-76" edge="1">
          <mxGeometry width="50" height="50" relative="1" as="geometry">
            <mxPoint x="480" y="450" as="sourcePoint" />
            <mxPoint x="530" y="400" as="targetPoint" />
          </mxGeometry>
        </mxCell>
        <mxCell id="mExYl_rD0EayUsfX2sbQ-78" value="" style="endArrow=none;html=1;rounded=0;entryX=0.5;entryY=0;entryDx=0;entryDy=0;exitX=0.5;exitY=1;exitDx=0;exitDy=0;" parent="1" source="mExYl_rD0EayUsfX2sbQ-75" target="mExYl_rD0EayUsfX2sbQ-26" edge="1">
          <mxGeometry width="50" height="50" relative="1" as="geometry">
            <mxPoint x="480" y="450" as="sourcePoint" />
            <mxPoint x="530" y="400" as="targetPoint" />
          </mxGeometry>
        </mxCell>
        <mxCell id="mExYl_rD0EayUsfX2sbQ-79" value="&lt;u&gt;ID&lt;/u&gt;" style="ellipse;whiteSpace=wrap;html=1;" parent="1" vertex="1">
          <mxGeometry x="580" y="360" width="80" height="50" as="geometry" />
        </mxCell>
        <mxCell id="mExYl_rD0EayUsfX2sbQ-81" value="Title" style="ellipse;whiteSpace=wrap;html=1;" parent="1" vertex="1">
          <mxGeometry x="677" y="380" width="80" height="50" as="geometry" />
        </mxCell>
        <mxCell id="mExYl_rD0EayUsfX2sbQ-82" value="Quantity" style="ellipse;whiteSpace=wrap;html=1;" parent="1" vertex="1">
          <mxGeometry x="690" y="450" width="80" height="50" as="geometry" />
        </mxCell>
        <mxCell id="mExYl_rD0EayUsfX2sbQ-83" value="Publisher" style="ellipse;whiteSpace=wrap;html=1;" parent="1" vertex="1">
          <mxGeometry x="680" y="534.5" width="80" height="50" as="geometry" />
        </mxCell>
        <mxCell id="mExYl_rD0EayUsfX2sbQ-84" value="Price" style="ellipse;whiteSpace=wrap;html=1;" parent="1" vertex="1">
          <mxGeometry x="677" y="610" width="80" height="50" as="geometry" />
        </mxCell>
        <mxCell id="mExYl_rD0EayUsfX2sbQ-86" value="" style="endArrow=none;html=1;rounded=0;exitX=1;exitY=0.5;exitDx=0;exitDy=0;" parent="1" source="mExYl_rD0EayUsfX2sbQ-25" target="mExYl_rD0EayUsfX2sbQ-84" edge="1">
          <mxGeometry width="50" height="50" relative="1" as="geometry">
            <mxPoint x="580" y="590" as="sourcePoint" />
            <mxPoint x="630" y="540" as="targetPoint" />
          </mxGeometry>
        </mxCell>
        <mxCell id="mExYl_rD0EayUsfX2sbQ-87" value="" style="endArrow=none;html=1;rounded=0;entryX=0;entryY=0.5;entryDx=0;entryDy=0;exitX=1;exitY=0.5;exitDx=0;exitDy=0;" parent="1" source="mExYl_rD0EayUsfX2sbQ-25" target="mExYl_rD0EayUsfX2sbQ-83" edge="1">
          <mxGeometry width="50" height="50" relative="1" as="geometry">
            <mxPoint x="580" y="590" as="sourcePoint" />
            <mxPoint x="630" y="540" as="targetPoint" />
          </mxGeometry>
        </mxCell>
        <mxCell id="mExYl_rD0EayUsfX2sbQ-88" value="" style="endArrow=none;html=1;rounded=0;entryX=0;entryY=0.5;entryDx=0;entryDy=0;exitX=1;exitY=0.5;exitDx=0;exitDy=0;" parent="1" source="mExYl_rD0EayUsfX2sbQ-25" target="mExYl_rD0EayUsfX2sbQ-82" edge="1">
          <mxGeometry width="50" height="50" relative="1" as="geometry">
            <mxPoint x="580" y="590" as="sourcePoint" />
            <mxPoint x="630" y="540" as="targetPoint" />
          </mxGeometry>
        </mxCell>
        <mxCell id="mExYl_rD0EayUsfX2sbQ-89" value="" style="endArrow=none;html=1;rounded=0;entryX=0;entryY=1;entryDx=0;entryDy=0;exitX=1;exitY=0.5;exitDx=0;exitDy=0;" parent="1" source="mExYl_rD0EayUsfX2sbQ-25" target="mExYl_rD0EayUsfX2sbQ-81" edge="1">
          <mxGeometry width="50" height="50" relative="1" as="geometry">
            <mxPoint x="580" y="590" as="sourcePoint" />
            <mxPoint x="630" y="540" as="targetPoint" />
          </mxGeometry>
        </mxCell>
        <mxCell id="mExYl_rD0EayUsfX2sbQ-90" value="" style="endArrow=none;html=1;rounded=0;entryX=0.5;entryY=1;entryDx=0;entryDy=0;exitX=1;exitY=0.5;exitDx=0;exitDy=0;" parent="1" source="mExYl_rD0EayUsfX2sbQ-25" target="mExYl_rD0EayUsfX2sbQ-79" edge="1">
          <mxGeometry width="50" height="50" relative="1" as="geometry">
            <mxPoint x="580" y="590" as="sourcePoint" />
            <mxPoint x="630" y="540" as="targetPoint" />
          </mxGeometry>
        </mxCell>
        <mxCell id="HZdfMkE2PTrTu3i8QBBD-1" value="Have" style="html=1;whiteSpace=wrap;aspect=fixed;shape=isoRectangle;" parent="1" vertex="1">
          <mxGeometry x="280" y="510" width="110" height="66" as="geometry" />
        </mxCell>
        <mxCell id="HZdfMkE2PTrTu3i8QBBD-4" value="Have" style="html=1;whiteSpace=wrap;aspect=fixed;shape=isoRectangle;" parent="1" vertex="1">
          <mxGeometry x="450" y="585" width="110" height="66" as="geometry" />
        </mxCell>
        <mxCell id="HZdfMkE2PTrTu3i8QBBD-6" value="Contains" style="html=1;whiteSpace=wrap;aspect=fixed;shape=isoRectangle;" parent="1" vertex="1">
          <mxGeometry x="450" y="314" width="110" height="66" as="geometry" />
        </mxCell>
        <mxCell id="HZdfMkE2PTrTu3i8QBBD-11" value="" style="fontSize=12;html=1;endArrow=ERoneToMany;rounded=0;entryX=0.5;entryY=0;entryDx=0;entryDy=0;exitX=0.503;exitY=0.959;exitDx=0;exitDy=0;exitPerimeter=0;" parent="1" source="HZdfMkE2PTrTu3i8QBBD-6" target="mExYl_rD0EayUsfX2sbQ-25" edge="1">
          <mxGeometry width="100" height="100" relative="1" as="geometry">
            <mxPoint x="490" y="410" as="sourcePoint" />
            <mxPoint x="590" y="310" as="targetPoint" />
          </mxGeometry>
        </mxCell>
        <mxCell id="HZdfMkE2PTrTu3i8QBBD-12" value="" style="fontSize=12;html=1;endArrow=ERoneToMany;rounded=0;entryX=0.956;entryY=-0.01;entryDx=0;entryDy=0;entryPerimeter=0;" parent="1" source="HZdfMkE2PTrTu3i8QBBD-4" target="mExYl_rD0EayUsfX2sbQ-24" edge="1">
          <mxGeometry width="100" height="100" relative="1" as="geometry">
            <mxPoint x="580" y="680" as="sourcePoint" />
            <mxPoint x="580" y="763" as="targetPoint" />
          </mxGeometry>
        </mxCell>
        <mxCell id="HZdfMkE2PTrTu3i8QBBD-13" value="" style="fontSize=12;html=1;endArrow=ERmandOne;rounded=0;entryX=0.5;entryY=1;entryDx=0;entryDy=0;exitX=0.488;exitY=0.029;exitDx=0;exitDy=0;exitPerimeter=0;" parent="1" source="HZdfMkE2PTrTu3i8QBBD-4" target="mExYl_rD0EayUsfX2sbQ-25" edge="1">
          <mxGeometry width="100" height="100" relative="1" as="geometry">
            <mxPoint x="420" y="580" as="sourcePoint" />
            <mxPoint x="510" y="350" as="targetPoint" />
          </mxGeometry>
        </mxCell>
        <mxCell id="HZdfMkE2PTrTu3i8QBBD-14" value="" style="fontSize=12;html=1;endArrow=ERmandOne;rounded=0;entryX=0.5;entryY=1;entryDx=0;entryDy=0;exitX=0.52;exitY=0.083;exitDx=0;exitDy=0;exitPerimeter=0;" parent="1" source="HZdfMkE2PTrTu3i8QBBD-6" target="mExYl_rD0EayUsfX2sbQ-26" edge="1">
          <mxGeometry width="100" height="100" relative="1" as="geometry">
            <mxPoint x="620" y="270" as="sourcePoint" />
            <mxPoint x="621" y="208" as="targetPoint" />
          </mxGeometry>
        </mxCell>
        <mxCell id="HZdfMkE2PTrTu3i8QBBD-15" value="" style="fontSize=12;html=1;endArrow=ERoneToMany;rounded=0;entryX=0.956;entryY=-0.01;entryDx=0;entryDy=0;entryPerimeter=0;exitX=0.498;exitY=0.97;exitDx=0;exitDy=0;exitPerimeter=0;" parent="1" source="HZdfMkE2PTrTu3i8QBBD-1" edge="1">
          <mxGeometry width="100" height="100" relative="1" as="geometry">
            <mxPoint x="371" y="651" as="sourcePoint" />
            <mxPoint x="370" y="699" as="targetPoint" />
          </mxGeometry>
        </mxCell>
        <mxCell id="HZdfMkE2PTrTu3i8QBBD-17" value="" style="fontSize=12;html=1;endArrow=ERmandOne;rounded=0;entryX=0.5;entryY=1;entryDx=0;entryDy=0;exitX=0.477;exitY=-0.046;exitDx=0;exitDy=0;exitPerimeter=0;" parent="1" source="HZdfMkE2PTrTu3i8QBBD-1" target="mExYl_rD0EayUsfX2sbQ-23" edge="1">
          <mxGeometry width="100" height="100" relative="1" as="geometry">
            <mxPoint x="309.40999999999997" y="500" as="sourcePoint" />
            <mxPoint x="310.40999999999997" y="438" as="targetPoint" />
          </mxGeometry>
        </mxCell>
      </root>
    </mxGraphModel>
  </diagram>
</mxfile>
